{"title":"Sedem chasa razlika S03E03 WEBRip.XviD.API","uid":7802954,"size":524934242,"categoryP":"video","categoryS":"tv_shows","magnet":"?xt=urn:btih:b9709c35aae5d95d2c7a789f91b640cfd435cfb4&amp;dn=Sedem+chasa+razlika+S03E03+WEBRip.XviD.API&amp;tr=udp%3A%2F%2Ftracker.openbittorrent.com%3A80&amp;tr=udp%3A%2F%2Fopen.demonii.com%3A1337&amp;tr=udp%3A%2F%2Ftracker.coppersurfer.tk%3A6969&amp;tr=udp%3A%2F%2Fexodus.desync.com%3A6969","seeders":0,"leechers":1,"uploader":null,"files":1,"time":1352327524,"description":"Format                                   : AVI\nFormat/Info                              : Audio Video Interleave\nFile size                                : 500 MiB\nDuration                                 : 47mn 51s\nOverall bit rate                         : 1 461 Kbps\nWriting application                      : Lavf52.84.0\n\nVideo\nID                                       : 0\nFormat                                   : xvid\nCodec ID                                 : xvid\nDuration                                 : 47mn 51s\nBit rate                                 : 1 322 Kbps\nWidth                                    : 720 pixels\nHeight                                   : 400 pixels\nDisplay aspect ratio                     : 16:9\nFrame rate                               : 25.000 fps\nBits/(Pixel*Frame)                       : 0.184\nStream size                              : 452 MiB (90%)\n\nAudio\nID                                       : 1\nFormat                                   : AC-3\nFormat/Info                              : Audio Coding 3\nMode extension                           : CM (complete main)\nFormat settings, Endianness              : Big\nCodec ID                                 : 2000\nDuration                                 : 47mn 51s\nBit rate mode                            : Constant\nBit rate                                 : 128 Kbps\nChannel(s)                               : 2 channels\nChannel positions                        : Front: L R\nSampling rate                            : 48.0 KHz\nBit depth                                : 16 bits\nCompression mode                         : Lossy\nStream size                              : 43.8 MiB (9%)\nAlignment                                : Aligned on interleaves\nInterleave, duration                     : 32 ms (0.80 video frame)\n\n","torrent":{"xt":"urn:btih:b9709c35aae5d95d2c7a789f91b640cfd435cfb4","amp;dn":"Sedem+chasa+razlika+S03E03+WEBRip.XviD.API","amp;tr":["udp%3A%2F%2Ftracker.openbittorrent.com%3A80","udp%3A%2F%2Fopen.demonii.com%3A1337","udp%3A%2F%2Ftracker.coppersurfer.tk%3A6969","udp%3A%2F%2Fexodus.desync.com%3A6969"],"infoHash":"b9709c35aae5d95d2c7a789f91b640cfd435cfb4","infoHashBuffer":{"type":"Buffer","data":[185,112,156,53,170,229,217,93,44,122,120,159,145,182,64,207,212,53,207,180]},"announce":[],"urlList":[]}}